# xmcd
#
# Track frame offsets: 
#        150
#        18105
#        42340
#        64397
#        87770
#        107415
#        125925
#        159130
#        179165
#        202493
#        222318
#
# Disc length: 3196 seconds
#
# Revision: 0
# Processed by: cddbd v1.5.2PL0 Copyright (c) Steve Scherf et al.
# Submitted via: ExactAudioCopyFreeDBPlugin 1.0
#
DISCID=a10c7a0b
DTITLE=Paul Banks - Blackberry Wine
DYEAR=2013
DGENRE=Blues
TTITLE0=Maybe They Can Fix It
TTITLE1=The Rest Of Mine
TTITLE2=Blackberry Wine
TTITLE3=Long Hot Summer Days
TTITLE4=Josh And The Devil
TTITLE5=Hymn
TTITLE6=Down From The Mountain
TTITLE7=Astronaut
TTITLE8=Time Machine
TTITLE9=Working Another Man's Land
TTITLE10=Make Me A Pallet On Your Floor
EXTD=
EXTT0=
EXTT1=
EXTT2=
EXTT3=
EXTT4=
EXTT5=
EXTT6=
EXTT7=
EXTT8=
EXTT9=
EXTT10=
PLAYORDER=
